<svg xmlns="http://www.w3.org/2000/svg" viewBox="0 0 518.4 144">
  <g id="svglogo" >
  <path fill-rule="evenodd" stroke-linecap="round" stroke-width=".9" fill="currentColor"
    d="m354.6 124.8-.8 3.6v-50l2.8 2.6h-38.8a3.8 3.8 0 0 1-2.7-1.1 5 5 0 0 1-.1-.1 4.2 4.2 0 0 1-.9-1.2 3.8 3.8 0 0 1-.3-1.6 4.4 4.4 0 0 1 .2-1.3 3.6 3.6 0 0 1 1-1.6q1.2-1.1 2.8-1.1h40a4.4 4.4 0 0 1 1.3.2 3.6 3.6 0 0 1 1.6 1q1.1 1.2 1.1 2.8v50.2a3.8 3.8 0 0 1 0 .7l-.4 1.1q-.4 1-1.4 1.8a77.2 77.2 0 0 1-16.8 8.6 87.8 87.8 0 0 1-2.9 1q-10.9 3.6-22.5 3.6a80.2 80.2 0 0 1-19-2.2 69.8 69.8 0 0 1-9.7-3.1q-13.1-5.3-22.8-15-9.7-9.7-15-22.9Q246 87.6 246 72a80.5 80.5 0 0 1 2.3-19.4 70.9 70.9 0 0 1 3-9.4q5.3-13.2 15-22.9t22.8-15a73.3 73.3 0 0 1 22-5 87.3 87.3 0 0 1 6.7-.3q11 0 21.2 2.7a61.9 61.9 0 0 1 13.3 5.1 54.8 54.8 0 0 1 4.9 3 4 4 0 0 1 .8.6 3 3 0 0 1 .6.9q.4.9.4 1.9a4.5 4.5 0 0 1-.2 1.2 3.2 3.2 0 0 1-1.2 1.8 8.1 8.1 0 0 1-.8.5q-.8.4-1.4.5a2.1 2.1 0 0 1-.2 0 3.6 3.6 0 0 1-.7 0 2.7 2.7 0 0 1-.7-.3l-1.2-.5a75.3 75.3 0 0 0-13.5-6 85.3 85.3 0 0 0-2.7-.8A64.7 64.7 0 0 0 319.6 8a72.8 72.8 0 0 0-1.8 0 70.9 70.9 0 0 0-18.5 2.3 59.2 59.2 0 0 0-14.4 6q-14.3 8.3-22.4 22.7a63 63 0 0 0-7.6 24 78.8 78.8 0 0 0-.5 9 72.9 72.9 0 0 0 2.4 19.1 61.5 61.5 0 0 0 5.7 14q8.1 14.5 22.4 22.7 14.3 8.2 32.9 8.2 10 0 19.7-3.1a72.2 72.2 0 0 0 10.7-4.3 59.4 59.4 0 0 0 6.4-3.8ZM4.8 134h72.6a3.8 3.8 0 0 1 2.7 1.1 5 5 0 0 1 .1.1 4.2 4.2 0 0 1 .9 1.2 3.8 3.8 0 0 1 .3 1.6 4.4 4.4 0 0 1-.2 1.3 3.6 3.6 0 0 1-1 1.6Q79 142 77.4 142H4a4.4 4.4 0 0 1-1.3-.2 3.6 3.6 0 0 1-1.6-1Q0 139.6 0 138V6a3.8 3.8 0 0 1 1.1-2.7 5 5 0 0 1 .1-.1A4 4 0 0 1 4.1 2a5.3 5.3 0 0 1 .1 0 4.4 4.4 0 0 1 1.6.3 4 4 0 0 1 1.4.9 4.2 4.2 0 0 1 .9 1.2A3.8 3.8 0 0 1 8.4 6v131.6L4.8 134Zm219.6-44.4A90.8 90.8 0 0 0 226 72a96.5 96.5 0 0 0-.5-9.7 78.4 78.4 0 0 0-4.4-19.5 76.3 76.3 0 0 0-1-2.4A66.3 66.3 0 0 0 207.2 20q-9-9.6-21.2-14.8a62.5 62.5 0 0 0-9-3A71.5 71.5 0 0 0 159.1 0a78.1 78.1 0 0 0-5.8.2 65.6 65.6 0 0 0-21 5q-12.2 5.2-21.2 14.8-9 9.6-13.9 22.8A75 75 0 0 0 94 54.4 90.8 90.8 0 0 0 92.4 72a96.5 96.5 0 0 0 .5 9.7 78.4 78.4 0 0 0 4.4 19.5 76.3 76.3 0 0 0 1 2.4 66.3 66.3 0 0 0 12.9 20.4q9 9.6 21.2 14.8a62.5 62.5 0 0 0 9 3 71.5 71.5 0 0 0 17.8 2.2 78.1 78.1 0 0 0 5.8-.2 65.6 65.6 0 0 0 21-5q12.2-5.2 21.2-14.8 9-9.6 13.9-22.8a75 75 0 0 0 3.3-11.6Zm292.4 0a90.8 90.8 0 0 0 1.6-17.6 96.5 96.5 0 0 0-.5-9.7 78.4 78.4 0 0 0-4.4-19.5 76.3 76.3 0 0 0-1-2.4A66.3 66.3 0 0 0 499.6 20q-9-9.6-21.2-14.8a62.5 62.5 0 0 0-9-3A71.5 71.5 0 0 0 451.5 0a78.1 78.1 0 0 0-5.8.2 65.6 65.6 0 0 0-21 5q-12.2 5.2-21.2 14.8-9 9.6-13.9 22.8a75 75 0 0 0-3.3 11.6 90.8 90.8 0 0 0-1.6 17.6 96.5 96.5 0 0 0 .5 9.7 78.4 78.4 0 0 0 4.4 19.5 76.3 76.3 0 0 0 1 2.4 66.3 66.3 0 0 0 12.9 20.4q9 9.6 21.2 14.8a62.5 62.5 0 0 0 9 3 71.5 71.5 0 0 0 17.8 2.2 78.1 78.1 0 0 0 5.8-.2 65.6 65.6 0 0 0 21-5q12.2-5.2 21.2-14.8 9-9.6 13.9-22.8a75 75 0 0 0 3.3-11.6ZM217.6 72a83.3 83.3 0 0 0-1.6-17 64 64 0 0 0-5.9-16.6 57.2 57.2 0 0 0-13.9-17.5 54.6 54.6 0 0 0-6.7-4.9 54.7 54.7 0 0 0-23-7.6 68.6 68.6 0 0 0-7.3-.4 61.6 61.6 0 0 0-18 2.5A53.5 53.5 0 0 0 129 16a55.6 55.6 0 0 0-20.6 22.3 65.6 65.6 0 0 0-.1.1 65.3 65.3 0 0 0-6.4 19.9 86 86 0 0 0-1.1 13.7 83.3 83.3 0 0 0 1.6 17 64 64 0 0 0 5.9 16.6 56.4 56.4 0 0 0 15.2 18.6 55 55 0 0 0 5.5 3.8 55.5 55.5 0 0 0 24.5 7.8 68.4 68.4 0 0 0 5.7.2q17.2 0 30.3-8a55.6 55.6 0 0 0 20.1-21.5 66 66 0 0 0 .5-.9 65.3 65.3 0 0 0 6.4-19.9 86 86 0 0 0 1.1-13.7ZM510 72a83.3 83.3 0 0 0-1.6-17 64 64 0 0 0-5.9-16.6 57.2 57.2 0 0 0-13.9-17.5A54.6 54.6 0 0 0 482 16a54.7 54.7 0 0 0-23-7.6 68.6 68.6 0 0 0-7.3-.4 61.6 61.6 0 0 0-18 2.5 53.5 53.5 0 0 0-12.2 5.5 55.6 55.6 0 0 0-20.6 22.3 65.6 65.6 0 0 0-.1.1 65.3 65.3 0 0 0-6.4 19.9 86 86 0 0 0-1.1 13.7 83.3 83.3 0 0 0 1.6 17 64 64 0 0 0 5.9 16.6 56.4 56.4 0 0 0 15.2 18.6 55 55 0 0 0 5.5 3.8 55.5 55.5 0 0 0 24.5 7.8 68.4 68.4 0 0 0 5.7.2q17.2 0 30.3-8a55.6 55.6 0 0 0 20.1-21.5 66 66 0 0 0 .5-.9 65.3 65.3 0 0 0 6.4-19.9A86 86 0 0 0 510 72Z"
  />
  </g>
</svg>
